<svg viewBox="0 0 102 75" fill="none" xmlns="http://www.w3.org/2000/svg"><path fill-rule="evenodd" clip-rule="evenodd" d="M4.354 70.035c0 1.107-.18 1.93-.537 2.467-.358.538-.906.807-1.642.807-.714 0-1.254-.278-1.623-.833C.184 71.921 0 71.107 0 70.035c0-1.125.179-1.954.537-2.488.358-.533.904-.8 1.638-.8.716 0 1.258.28 1.626.837.369.558.553 1.375.553 2.45Zm-3.31 0c0 .869.09 1.49.269 1.861.18.372.467.558.862.558.394 0 .683-.189.865-.566.183-.378.274-.996.274-1.854 0-.854-.09-1.473-.274-1.855-.182-.382-.47-.573-.865-.573s-.682.187-.862.562c-.18.375-.27.997-.27 1.866Zm6.085 3.186h1.03v-6.374H7.3L5.415 68.32l.517.65c.558-.45.887-.718.984-.802.098-.085.181-.162.248-.231-.023.288-.035.677-.035 1.168v4.116Zm5.297-6.456c.608 0 1.088.138 1.442.416.354.278.53.649.53 1.114 0 .654-.394 1.174-1.183 1.56.503.25.86.514 1.072.79.212.276.318.584.318.924 0 .526-.195.948-.583 1.265-.39.317-.915.475-1.579.475-.695 0-1.235-.148-1.618-.445-.383-.296-.574-.716-.574-1.26 0-.354.1-.673.3-.957.2-.283.529-.535.985-.756-.392-.233-.671-.478-.838-.737a1.576 1.576 0 0 1-.25-.872c0-.462.183-.83.548-1.105.366-.275.842-.412 1.43-.412Zm-1.188 4.805c0 .302.106.537.32.704.213.167.502.25.868.25.377 0 .67-.086.879-.259.209-.173.313-.407.313-.704 0-.236-.096-.45-.29-.645-.192-.195-.484-.375-.876-.541l-.127-.057c-.386.169-.664.354-.833.556a1.05 1.05 0 0 0-.255.696Zm.473-3.801c.178-.144.414-.216.706-.216.298 0 .537.072.717.216.18.144.27.34.27.587a.89.89 0 0 1-.217.595c-.145.17-.393.332-.744.486-.292-.137-.5-.254-.622-.351a1.06 1.06 0 0 1-.28-.325.84.84 0 0 1-.097-.405c0-.248.089-.443.267-.587Zm3.674 5.452h4.345v-.902h-3.043v-.044l1.114-1.072c.5-.468.857-.84 1.072-1.114.215-.275.374-.542.478-.8a2.18 2.18 0 0 0 .155-.82c0-.523-.18-.94-.539-1.25-.36-.309-.837-.464-1.434-.464-.38 0-.738.063-1.074.188-.336.125-.682.337-1.039.636l.557.676c.3-.235.566-.398.796-.488.229-.09.466-.135.712-.135.307 0 .547.083.721.248.174.166.261.393.261.68 0 .21-.036.406-.11.589-.072.183-.189.379-.348.587-.16.207-.483.56-.971 1.057l-1.653 1.652v.776Zm8.208-6.456c-2.043 0-3.065 1.247-3.065 3.74 0 .59.091 1.096.274 1.516.183.42.444.74.783.959.339.22.738.33 1.197.33.649 0 1.16-.195 1.536-.583.376-.388.564-.916.564-1.585 0-.607-.162-1.088-.487-1.443-.324-.355-.777-.532-1.359-.532-.336 0-.629.065-.877.194-.248.13-.441.312-.579.547h-.052c.029-.808.216-1.395.56-1.761.346-.367.862-.55 1.549-.55.292 0 .55.032.771.096v-.854a3.823 3.823 0 0 0-.815-.074Zm-.011 5.358c-.192.226-.464.34-.818.34-.348 0-.634-.14-.857-.421-.224-.28-.336-.626-.336-1.035 0-.172.054-.34.163-.504.108-.164.255-.294.442-.388.188-.095.392-.142.614-.142.36 0 .63.105.81.314.179.21.269.497.269.863 0 .422-.096.746-.287.973Zm2.703 1.098 2.385-6.374h-.97l-2.389 6.374h.974Zm7.637-.835c.588-.556.882-1.36.882-2.413 0-.991-.284-1.76-.85-2.307-.568-.546-1.361-.82-2.382-.82h-1.981v6.375h1.793c1.105 0 1.95-.278 2.538-.835Zm-2.376-4.667c1.435 0 2.153.763 2.153 2.29 0 1.557-.772 2.336-2.315 2.336h-.746V67.72h.908Zm3.105 7.172c.192.073.432.109.719.109.599 0 1.054-.172 1.365-.517.312-.344.467-.842.467-1.493v-6.143H36.15v6.178c0 .72-.286 1.081-.86 1.081-.18 0-.394-.03-.64-.091v.876Zm7.55-3.44.64 1.77h1.113l-2.398-6.4h-1.14l-2.398 6.4h1.105l.627-1.77h2.45Zm-.877-2.633.6 1.735h-1.867l.578-1.661c.152-.425.268-.816.347-1.173.029.116.082.3.16.55.077.25.138.432.182.548Zm3.477-1.971v6.374h1.047v-6.374h-1.047Zm2.477 5.83c0-.213.055-.376.166-.489.111-.113.272-.17.482-.17.214 0 .376.059.487.177.111.117.167.278.167.481 0 .207-.057.37-.17.49-.112.122-.273.182-.484.182-.21 0-.37-.06-.482-.179-.111-.119-.166-.283-.166-.493Zm6.975-3.903c0 .665-.219 1.176-.657 1.53-.439.355-1.063.532-1.873.532h-.666v2.385h-1.048v-6.374h1.846c.8 0 1.4.163 1.8.488.399.326.598.805.598 1.439Zm-3.196 1.186h.557c.537 0 .932-.093 1.183-.279.252-.186.378-.476.378-.872 0-.366-.113-.64-.338-.82-.225-.18-.576-.27-1.052-.27h-.728v2.241Zm8.173 1.53c0 .567-.206 1.012-.619 1.335-.412.322-.98.483-1.705.483-.725 0-1.318-.111-1.78-.335v-.986c.292.137.603.245.931.323.33.079.635.118.919.118.415 0 .721-.079.919-.236a.766.766 0 0 0 .295-.632.79.79 0 0 0-.271-.606c-.182-.166-.556-.362-1.123-.588-.584-.236-.996-.505-1.236-.807-.24-.302-.36-.666-.36-1.09 0-.532.19-.95.57-1.256.38-.305.89-.458 1.53-.458.614 0 1.225.134 1.833.401l-.333.85c-.57-.238-1.079-.357-1.526-.357-.339 0-.596.074-.772.22a.721.721 0 0 0-.263.582c0 .166.036.308.106.425.07.118.185.23.346.334.16.105.45.243.868.414.47.195.816.377 1.035.545.22.169.38.36.482.572.102.212.154.462.154.75Zm1.24 1.731h3.627v-.885h-2.578v-2.001h2.415v-.872H61.52v-1.736h2.578v-.88H60.47v6.374Zm7.594-6.374L65.68 73.22h-.973l2.39-6.374h.968Zm2.464 6.374h1.03v-6.374H70.7l-1.885 1.473.517.65c.559-.45.887-.718.985-.802.098-.085.18-.162.247-.231-.023.288-.035.677-.035 1.168v4.116Zm6.939-.719c.358-.537.537-1.36.537-2.467 0-1.076-.184-1.893-.553-2.45-.368-.559-.91-.838-1.626-.838-.734 0-1.28.267-1.638.8-.358.534-.537 1.363-.537 2.488 0 1.072.184 1.886.553 2.441.368.555.909.833 1.622.833.736 0 1.284-.269 1.642-.807Zm-2.504-.606c-.18-.372-.27-.992-.27-1.862 0-.869.09-1.49.27-1.866.18-.375.467-.562.862-.562.395 0 .683.191.866.573.183.382.274 1 .274 1.855 0 .858-.091 1.476-.274 1.853-.183.378-.471.567-.866.567s-.682-.186-.862-.558Zm4.47 1.325 2.385-6.374h-.968l-2.39 6.374h.973Zm7.2 0h-4.345v-.776l1.653-1.652c.488-.497.811-.85.97-1.058.16-.207.276-.403.35-.586.072-.183.109-.38.109-.589 0-.287-.087-.514-.261-.68-.174-.165-.414-.248-.721-.248-.246 0-.483.045-.713.135-.23.09-.494.253-.796.488l-.556-.676c.356-.299.703-.511 1.039-.636a3.057 3.057 0 0 1 1.074-.188c.596 0 1.074.155 1.434.465.36.31.539.726.539 1.249 0 .288-.052.56-.156.82a3.321 3.321 0 0 1-.478.8c-.214.274-.572.646-1.072 1.114l-1.113 1.072v.044h3.043v.902Zm5.125-3.186c0 1.107-.179 1.93-.537 2.467-.358.538-.905.807-1.642.807-.713 0-1.254-.278-1.622-.833-.369-.555-.553-1.369-.553-2.441 0-1.125.18-1.954.537-2.488.358-.533.904-.8 1.638-.8.716 0 1.258.28 1.627.837.368.558.552 1.375.552 2.45Zm-3.31 0c0 .869.09 1.49.27 1.861.179.372.466.558.86.558.395 0 .684-.189.867-.566.182-.378.274-.996.274-1.854 0-.854-.092-1.473-.274-1.855-.183-.382-.472-.573-.866-.573-.395 0-.682.187-.862.562-.18.375-.27.997-.27 1.866Zm7.116 3.186h-1.03v-4.116c0-.491.011-.88.034-1.168-.067.07-.15.147-.247.23-.098.085-.426.352-.984.803l-.518-.65 1.885-1.473h.86v6.374ZM102 69.568c0 1.256-.254 2.193-.763 2.812-.508.62-1.274.93-2.297.93-.39 0-.668-.024-.838-.07v-.86c.26.073.522.11.785.11.696 0 1.215-.187 1.557-.559.342-.372.529-.956.561-1.752h-.053c-.172.261-.381.45-.625.566-.244.117-.53.175-.857.175-.567 0-1.013-.176-1.337-.528-.325-.352-.487-.834-.487-1.447 0-.666.188-1.196.564-1.59.375-.393.888-.59 1.536-.59.456 0 .854.11 1.193.331.339.22.601.541.785.961.184.42.276.924.276 1.511Zm-2.236-1.953c-.356 0-.63.115-.82.346-.19.231-.285.556-.285.975 0 .363.089.649.265.857.177.207.445.311.805.311.348 0 .64-.103.877-.31.237-.206.355-.447.355-.723 0-.259-.05-.5-.151-.726a1.298 1.298 0 0 0-.423-.534 1.04 1.04 0 0 0-.623-.196Z" fill="#000"/><path fill-rule="evenodd" clip-rule="evenodd" d="M30.94 57.807c.79.75 1.838 1.125 3.145 1.125v.002c1.323 0 2.4-.395 3.229-1.186.83-.796 1.244-1.843 1.244-3.14 0-1.312-.465-2.331-1.397-3.058-.814-.632-1.831-.948-3.052-.948-1.252 0-2.282.374-3.088 1.124-.837.782-1.256 1.8-1.256 3.058 0 1.258.392 2.266 1.174 3.023Zm6.315-4.51c.102.406.153.875.153 1.406 0 .868-.239 1.672-.716 2.414-.61.953-1.468 1.43-2.571 1.43-.924 0-1.679-.305-2.266-.914-.626-.657-.94-1.559-.94-2.707 0-1.195.294-2.148.881-2.859.595-.718 1.405-1.078 2.43-1.078.485 0 .94.098 1.362.293.43.195.79.477 1.08.844.29.367.485.757.587 1.171Zm-8.322-2.504-2.665 2.554-.998 1.007a553.628 553.628 0 0 0 2.853 3.223l.95 1.171v.059l-.645-.036-.658.036a11.69 11.69 0 0 0-.399-.54 8.978 8.978 0 0 0-.41-.53L24.4 54.75a.3.3 0 0 0-.153-.058c-.031.007-.047.015-.047.023v4.089l-.517-.035-.516.035V50.79l.517.035.516-.035v3.62c.008.031.043.04.106.024a.542.542 0 0 0 .202-.094c.062-.055.192-.176.387-.364.07-.07.145-.14.223-.21l2.89-2.975.469.035.455-.033Zm19.018 0h-.247l-.01-.003-3.38 6.14a61.197 61.197 0 0 1-1.21-2.11c-.429-.78-.8-1.472-1.113-2.073-.258-.508-.59-1.16-.998-1.957h-.303c-.055.586-.215 1.816-.481 3.69a250.458 250.458 0 0 1-.646 4.324l.423-.036.41.036c0-.633.063-1.52.188-2.66.124-1.14.253-2.268.388-3.386.266.508.536 1.016.81 1.523.32.61.59 1.129.81 1.559.22.423.47.928.751 1.513l.646 1.325h.127c.242-.547.512-1.121.81-1.723.274-.547.614-1.195 1.021-1.944.352-.641.767-1.391 1.245-2.25.064.438.132 1.004.202 1.699.08.695.147 1.398.202 2.109l.042.455v.003l.16 1.78.552-.035.552.035c-.143-1.016-.256-1.84-.34-2.472-.079-.64-.18-1.535-.306-2.683-.039-.352-.14-1.305-.305-2.859Zm2.655 8.018v-8.014l.517.035.516-.035v8.014l-.517-.036-.516.036Zm10.13-.004v-8.014l-.331.035-.329-.035v6.034h-.117l-5.577-6.034h-.455v8.014l.329-.035.328.035v-6.315h.118l5.071 5.6.61.715h.353Zm2.2.004v-8.014h4.167l-.035.351.035.352a6.45 6.45 0 0 0-.575-.094 3.074 3.074 0 0 0-.481-.035l-1.174-.024h-.904v2.939h1.82c.148 0 .344-.008.587-.024.25-.024.402-.035.455-.035l-.036.304.036.328c-.141 0-.337-.008-.588-.023a7.564 7.564 0 0 0-.455-.035h-1.82v4.006l-.516-.035-.517.039Zm9.635.12c-1.307 0-2.355-.374-3.146-1.124-.783-.757-1.174-1.765-1.174-3.023 0-1.257.419-2.276 1.256-3.058.806-.75 1.835-1.124 3.088-1.124 1.22 0 2.238.316 3.052.948.932.727 1.397 1.746 1.397 3.059 0 1.296-.415 2.343-1.244 3.14-.83.79-1.906 1.185-3.23 1.185l.001-.002Zm3.323-4.228c0-.531-.051-1-.153-1.406a3.065 3.065 0 0 0-.587-1.171 2.861 2.861 0 0 0-1.08-.844 3.21 3.21 0 0 0-1.362-.293c-1.026 0-1.835.36-2.43 1.078-.587.71-.88 1.664-.88 2.86 0 1.147.313 2.05.939 2.706.587.609 1.342.913 2.266.913 1.103 0 1.96-.476 2.57-1.429a4.376 4.376 0 0 0 .716-2.413v-.001Z" fill="#2B2260"/><path d="M50.794 39.867s.831.771.677 1.206c-.352 1-1.931 1.465-2.957 1.188-1.637-.441-3.134-2.318-3.119-4.01.022-2.483 2.566-4.493 4.679-5.806 2.174-1.351 4.937-1.718 7.498-1.676 2.788.046 5.763.572 8.098 2.095 1.299.847 2.371 2.187 2.879 3.65.287.83 0 2.635 0 2.635s2.29-3.157 3.119-4.909c.987-2.089 2.436-4.292 2.159-6.585-.127-1.05-.823-2.069-1.68-2.693-2.749-1.996-6.499-2.342-9.897-2.455-3.512-.116-7.083.631-10.376 1.856-2.244.833-4.44 2.01-6.178 3.651-1.958 1.849-3.835 4.098-4.5 6.704-.43 1.69-.338 3.669.48 5.208.74 1.391 2.196 2.407 3.66 2.994 1.432.575 3.149.832 4.618.359.972-.313 2.307-.957 2.34-1.976.047-1.5-1.5-1.437-1.5-1.437Z" fill="#0087CB"/><path d="M49.978 40.75s-.217-.668-.031-.907c.3-.388.978-.493 1.44-.321.669.252 1.267 1.01 1.268 1.72.002.915-.803 1.802-1.62 2.216-1.782.904-4.106.646-5.998 0-1.604-.549-3.175-1.645-4.018-3.113-1.224-2.13-1.51-4.91-.96-7.303.561-2.443 2.385-4.49 4.139-6.285 1.886-1.93 4.168-3.566 6.658-4.61 2.853-1.195 6.032-1.514 9.118-1.735 2.655-.19 5.363-.136 7.978.358 1.64.31 3.3.772 4.738 1.617.566.332 1.462 1.317 1.462 1.317s-.393-5.04-1.162-7.423c-.665-2.064-1.372-4.304-2.939-5.806-1.11-1.064-2.695-1.59-4.199-1.911-2.857-.61-5.884-.463-8.757.055-3.356.606-6.599 1.91-9.605 3.517-2.814 1.504-5.465 3.398-7.73 5.642-1.856 1.839-3.607 3.905-4.68 6.285a18.696 18.696 0 0 0-1.619 7.722c.014 2.106.45 4.275 1.38 6.166.869 1.768 2.262 3.29 3.779 4.55a14.359 14.359 0 0 0 4.498 2.506c1.531.523 3.184.817 4.8.725 1.89-.107 4.04-.254 5.482-1.479.842-.715 1.45-1.918 1.365-3.018-.06-.77-.614-1.534-1.273-1.941-.719-.445-1.704-.72-2.522-.5-.758.203-1.394.609-1.49 1.241-.046.3.502.715.502.715h-.004Z" fill="#00549B"/><path d="M50.231 41.285s-1.163-.235-1.466-.669c-.435-.627-.404-1.512.023-2.145.703-1.04 2.208-1.44 3.465-1.488 2.125-.087 4.721.373 6.046 2.033 1.106 1.387 1.33 3.709.527 5.29-.806 1.585-2.896 2.201-4.603 2.711-2.672.799-5.602.84-8.357.407-2.846-.448-5.626-1.553-8.085-3.053-2.71-1.652-5.194-3.814-7.066-6.374-2.008-2.745-3.506-5.963-4.212-9.285-.639-3.007-.55-6.207.068-9.22a27.024 27.024 0 0 1 4.008-9.563C32.06 7.726 34.052 5.84 36.22 4.3c1.947-1.382 4.189-2.356 6.454-3.118C44.512.563 46.44.133 48.379.03c2.408-.127 4.848.157 7.202.678 1.972.437 3.92 1.091 5.707 2.034 2.106 1.112 5.775 4.204 5.775 4.204s-7.44-.71-11.075-.068c-4.283.756-8.512 2.288-12.229 4.542-2.767 1.679-5.209 3.962-7.201 6.509a22.496 22.496 0 0 0-3.667 6.848c-.813 2.498-1.243 5.178-1.087 7.797.106 1.773.572 3.56 1.359 5.152.785 1.59 1.927 3.034 3.261 4.204a18.195 18.195 0 0 0 5.91 3.458c1.75.615 3.65.837 5.504.814 1.586-.02 3.276-.093 4.688-.814 1.183-.604 2.449-1.514 2.853-2.78.33-1.028.13-2.37-.578-3.187-.698-.806-1.968-1.017-3.036-1.017-.784 0-1.662.207-2.229.746-.316.302-.48.688-.364 1.11.132.477 1.06 1.026 1.06 1.026h.001l-.002-.001Z" fill="#2B2260"/></svg>
